{
    "asset" : {
        "generator" : "Khronos glTF Blender I/O v1.4.40",
        "version" : "2.0"
    },
    "scene" : 0,
    "scenes" : [
        {
            "name" : "Scene",
            "nodes" : [
                0,
                1,
                2,
                3,
                4,
                5,
                10
            ]
        }
    ],
    "nodes" : [
        {
            "mesh" : 0,
            "name" : "Hedra001",
            "rotation" : [
                -0.7010588049888611,
                -0.0922853946685791,
                -0.0922853946685791,
                0.7010588049888611
            ],
            "scale" : [
                0.15000000596046448,
                0.15000000596046448,
                0.15000000596046448
            ],
            "translation" : [
                -47.17842102050781,
                66.66763305664062,
                98.77017211914062
            ]
        },
        {
            "mesh" : 1,
            "name" : "Hedra001.001",
            "rotation" : [
                -0.7010588049888611,
                -0.0922853946685791,
                -0.0922853946685791,
                0.7010588049888611
            ],
            "scale" : [
                0.30000001192092896,
                0.30000001192092896,
                0.30000001192092896
            ],
            "translation" : [
                149.60423278808594,
                3.9254684448242188,
                41.31230926513672
            ]
        },
        {
            "mesh" : 2,
            "name" : "Hedra001.002",
            "rotation" : [
                -0.7010588049888611,
                -0.0922853946685791,
                -0.0922853946685791,
                0.7010588049888611
            ],
            "scale" : [
                0.44999998807907104,
                0.44999998807907104,
                0.44999998807907104
            ],
            "translation" : [
                -179.71502685546875,
                -106.87699127197266,
                74.00370025634766
            ]
        },
        {
            "mesh" : 3,
            "name" : "Hedra001.003",
            "rotation" : [
                -0.7010588049888611,
                -0.0922853946685791,
                -0.0922853946685791,
                0.7010588049888611
            ],
            "scale" : [
                0.15000000596046448,
                0.15000000596046448,
                0.15000000596046448
            ],
            "translation" : [
                106.2457504272461,
                -124.32107543945312,
                2.6836471557617188
            ]
        },
        {
            "mesh" : 4,
            "name" : "Hedra001.004",
            "rotation" : [
                -0.7010588049888611,
                -0.0922853946685791,
                -0.0922853946685791,
                0.7010588049888611
            ],
            "scale" : [
                0.44999998807907104,
                0.44999998807907104,
                0.44999998807907104
            ],
            "translation" : [
                143.9618377685547,
                130.94805908203125,
                -82.53337097167969
            ]
        },
        {
            "mesh" : 5,
            "name" : "Hedra001.005",
            "rotation" : [
                -0.7010588049888611,
                -0.0922853946685791,
                -0.0922853946685791,
                0.7010588049888611
            ],
            "scale" : [
                0.30000001192092896,
                0.30000001192092896,
                0.30000001192092896
            ],
            "translation" : [
                -114.30764770507812,
                104.33785247802734,
                -74.27252960205078
            ]
        },
        {
            "mesh" : 6,
            "name" : "Line877526527",
            "rotation" : [
                0.4474939703941345,
                0,
                0,
                0.8942870497703552
            ],
            "scale" : [
                1.0524662733078003,
                1.0524661540985107,
                1.0524661540985107
            ],
            "translation" : [
                0,
                13.727684020996094,
                -14.19727611541748
            ]
        },
        {
            "mesh" : 7,
            "name" : "Line877526528",
            "rotation" : [
                0.4474939703941345,
                0,
                0,
                0.8942870497703552
            ],
            "scale" : [
                0.8677628636360168,
                0.8677629232406616,
                0.8677629232406616
            ],
            "translation" : [
                0,
                8.572470664978027,
                -10.335858345031738
            ]
        },
        {
            "mesh" : 8,
            "name" : "Line877526529",
            "rotation" : [
                0.4474939703941345,
                0,
                0,
                0.8942870497703552
            ],
            "scale" : [
                1.0524662733078003,
                1.0524661540985107,
                1.0524661540985107
            ],
            "translation" : [
                0.1977088302373886,
                -4.083562850952148,
                3.7195727825164795
            ]
        },
        {
            "mesh" : 9,
            "name" : "Object499",
            "rotation" : [
                0.4474939703941345,
                0,
                0,
                0.8942870497703552
            ],
            "scale" : [
                1.0524662733078003,
                1.0524661540985107,
                1.0524661540985107
            ],
            "translation" : [
                0.1977088302373886,
                -4.002274513244629,
                3.6586861610412598
            ]
        },
        {
            "children" : [
                6,
                7,
                8,
                9
            ],
            "name" : "Group60461",
            "rotation" : [
                -0.7071068286895752,
                0,
                0,
                0.7071068286895752
            ],
            "translation" : [
                0,
                0,
                -6.103515625e-05
            ]
        }
    ],
    "materials" : [
        {
            "name" : "Material #2147049004",
            "pbrMetallicRoughness" : {
                "baseColorFactor" : [
                    0.7803921699523926,
                    0.7803921699523926,
                    0.7803921699523926,
                    1
                ],
                "metallicFactor" : 0.5,
                "roughnessFactor" : 0.5
            }
        },
        {
            "name" : "Material #2147049004.002",
            "pbrMetallicRoughness" : {
                "baseColorFactor" : [
                    0.7803921699523926,
                    0.7803921699523926,
                    0.7803921699523926,
                    1
                ],
                "metallicFactor" : 0.5,
                "roughnessFactor" : 0.5
            }
        },
        {
            "name" : "Material #2147049004.003",
            "pbrMetallicRoughness" : {
                "baseColorFactor" : [
                    0.7803921699523926,
                    0.7803921699523926,
                    0.7803921699523926,
                    1
                ],
                "metallicFactor" : 0.5,
                "roughnessFactor" : 0.5
            }
        },
        {
            "name" : "Material #2147049004.004",
            "pbrMetallicRoughness" : {
                "baseColorFactor" : [
                    0.7803921699523926,
                    0.7803921699523926,
                    0.7803921699523926,
                    1
                ],
                "metallicFactor" : 0.5,
                "roughnessFactor" : 0.5
            }
        },
        {
            "name" : "Material #2147049004.005",
            "pbrMetallicRoughness" : {
                "baseColorFactor" : [
                    0.7803921699523926,
                    0.7803921699523926,
                    0.7803921699523926,
                    1
                ],
                "metallicFactor" : 0.5,
                "roughnessFactor" : 0.5
            }
        },
        {
            "name" : "Material #2147049004.006",
            "pbrMetallicRoughness" : {
                "baseColorFactor" : [
                    0.7803921699523926,
                    0.7803921699523926,
                    0.7803921699523926,
                    1
                ],
                "metallicFactor" : 0.5,
                "roughnessFactor" : 0.5
            }
        },
        {
            "name" : "\u0447\u0435\u0440\u043d.001",
            "pbrMetallicRoughness" : {
                "baseColorFactor" : [
                    0.04313725605607033,
                    0.04313725605607033,
                    0.04313725605607033,
                    1
                ],
                "metallicFactor" : 0.5,
                "roughnessFactor" : 0.5
            }
        },
        {
            "name" : "\u0431\u0435\u043b.001",
            "pbrMetallicRoughness" : {
                "baseColorFactor" : [
                    0.7803921699523926,
                    0.7803921699523926,
                    0.7803921699523926,
                    1
                ],
                "metallicFactor" : 0.5,
                "roughnessFactor" : 0.5
            }
        },
        {
            "name" : "\u0437\u043e\u043b.001",
            "pbrMetallicRoughness" : {
                "baseColorFactor" : [
                    0.3019607961177826,
                    0.1882352977991104,
                    0.05098039284348488,
                    1
                ],
                "metallicFactor" : 0.5,
                "roughnessFactor" : 0.5
            }
        },
        {
            "emissiveFactor" : [
                1,
                1,
                1
            ],
            "name" : "\u0441\u0432\u0435\u0442.001",
            "pbrMetallicRoughness" : {
                "metallicFactor" : 0.5,
                "roughnessFactor" : 0.5
            }
        }
    ],
    "meshes" : [
        {
            "name" : "Mesh_0.001",
            "primitives" : [
                {
                    "attributes" : {
                        "POSITION" : 0,
                        "NORMAL" : 1
                    },
                    "indices" : 2,
                    "material" : 0
                }
            ]
        },
        {
            "name" : "Mesh_0.002",
            "primitives" : [
                {
                    "attributes" : {
                        "POSITION" : 3,
                        "NORMAL" : 4
                    },
                    "indices" : 2,
                    "material" : 1
                }
            ]
        },
        {
            "name" : "Mesh_0.003",
            "primitives" : [
                {
                    "attributes" : {
                        "POSITION" : 5,
                        "NORMAL" : 6
                    },
                    "indices" : 2,
                    "material" : 2
                }
            ]
        },
        {
            "name" : "Mesh_0.004",
            "primitives" : [
                {
                    "attributes" : {
                        "POSITION" : 7,
                        "NORMAL" : 8
                    },
                    "indices" : 2,
                    "material" : 3
                }
            ]
        },
        {
            "name" : "Mesh_0.005",
            "primitives" : [
                {
                    "attributes" : {
                        "POSITION" : 9,
                        "NORMAL" : 10
                    },
                    "indices" : 2,
                    "material" : 4
                }
            ]
        },
        {
            "name" : "Mesh_0.006",
            "primitives" : [
                {
                    "attributes" : {
                        "POSITION" : 11,
                        "NORMAL" : 12
                    },
                    "indices" : 2,
                    "material" : 5
                }
            ]
        },
        {
            "name" : "Mesh_3.002",
            "primitives" : [
                {
                    "attributes" : {
                        "POSITION" : 13,
                        "NORMAL" : 14,
                        "TEXCOORD_0" : 15
                    },
                    "indices" : 16,
                    "material" : 6
                }
            ]
        },
        {
            "name" : "Mesh_1.002",
            "primitives" : [
                {
                    "attributes" : {
                        "POSITION" : 17,
                        "NORMAL" : 18
                    },
                    "indices" : 16,
                    "material" : 7
                }
            ]
        },
        {
            "name" : "Mesh_0.008",
            "primitives" : [
                {
                    "attributes" : {
                        "POSITION" : 19,
                        "NORMAL" : 20
                    },
                    "indices" : 21,
                    "material" : 8
                }
            ]
        },
        {
            "name" : "Mesh_2.002",
            "primitives" : [
                {
                    "attributes" : {
                        "POSITION" : 22,
                        "NORMAL" : 23
                    },
                    "indices" : 24,
                    "material" : 9
                }
            ]
        }
    ],
    "accessors" : [
        {
            "bufferView" : 0,
            "componentType" : 5126,
            "count" : 60,
            "max" : [
                66.98037719726562,
                66.98037719726562,
                66.98037719726562
            ],
            "min" : [
                -66.98037719726562,
                -66.98037719726562,
                -66.98037719726562
            ],
            "type" : "VEC3"
        },
        {
            "bufferView" : 1,
            "componentType" : 5126,
            "count" : 60,
            "type" : "VEC3"
        },
        {
            "bufferView" : 2,
            "componentType" : 5123,
            "count" : 60,
            "type" : "SCALAR"
        },
        {
            "bufferView" : 3,
            "componentType" : 5126,
            "count" : 60,
            "max" : [
                66.98037719726562,
                66.98037719726562,
                66.98037719726562
            ],
            "min" : [
                -66.98037719726562,
                -66.98037719726562,
                -66.98037719726562
            ],
            "type" : "VEC3"
        },
        {
            "bufferView" : 4,
            "componentType" : 5126,
            "count" : 60,
            "type" : "VEC3"
        },
        {
            "bufferView" : 5,
            "componentType" : 5126,
            "count" : 60,
            "max" : [
                66.98037719726562,
                66.98037719726562,
                66.98037719726562
            ],
            "min" : [
                -66.98037719726562,
                -66.98037719726562,
                -66.98037719726562
            ],
            "type" : "VEC3"
        },
        {
            "bufferView" : 6,
            "componentType" : 5126,
            "count" : 60,
            "type" : "VEC3"
        },
        {
            "bufferView" : 7,
            "componentType" : 5126,
            "count" : 60,
            "max" : [
                66.98037719726562,
                66.98037719726562,
                66.98037719726562
            ],
            "min" : [
                -66.98037719726562,
                -66.98037719726562,
                -66.98037719726562
            ],
            "type" : "VEC3"
        },
        {
            "bufferView" : 8,
            "componentType" : 5126,
            "count" : 60,
            "type" : "VEC3"
        },
        {
            "bufferView" : 9,
            "componentType" : 5126,
            "count" : 60,
            "max" : [
                66.98037719726562,
                66.98037719726562,
                66.98037719726562
            ],
            "min" : [
                -66.98037719726562,
                -66.98037719726562,
                -66.98037719726562
            ],
            "type" : "VEC3"
        },
        {
            "bufferView" : 10,
            "componentType" : 5126,
            "count" : 60,
            "type" : "VEC3"
        },
        {
            "bufferView" : 11,
            "componentType" : 5126,
            "count" : 60,
            "max" : [
                66.98037719726562,
                66.98037719726562,
                66.98037719726562
            ],
            "min" : [
                -66.98037719726562,
                -66.98037719726562,
                -66.98037719726562
            ],
            "type" : "VEC3"
        },
        {
            "bufferView" : 12,
            "componentType" : 5126,
            "count" : 60,
            "type" : "VEC3"
        },
        {
            "bufferView" : 13,
            "componentType" : 5126,
            "count" : 312,
            "max" : [
                83.31787872314453,
                94.894287109375,
                32.22636413574219
            ],
            "min" : [
                -83.31787872314453,
                -94.894287109375,
                0
            ],
            "type" : "VEC3"
        },
        {
            "bufferView" : 14,
            "componentType" : 5126,
            "count" : 312,
            "type" : "VEC3"
        },
        {
            "bufferView" : 15,
            "componentType" : 5126,
            "count" : 312,
            "type" : "VEC2"
        },
        {
            "bufferView" : 16,
            "componentType" : 5123,
            "count" : 312,
            "type" : "SCALAR"
        },
        {
            "bufferView" : 17,
            "componentType" : 5126,
            "count" : 312,
            "max" : [
                83.28761291503906,
                94.894287109375,
                32.22636413574219
            ],
            "min" : [
                -83.28761291503906,
                -94.894287109375,
                0
            ],
            "type" : "VEC3"
        },
        {
            "bufferView" : 18,
            "componentType" : 5126,
            "count" : 312,
            "type" : "VEC3"
        },
        {
            "bufferView" : 19,
            "componentType" : 5126,
            "count" : 264,
            "max" : [
                52.47666931152344,
                58.834712982177734,
                17.617990493774414
            ],
            "min" : [
                -52.47645568847656,
                -58.834720611572266,
                0.47799110412597656
            ],
            "type" : "VEC3"
        },
        {
            "bufferView" : 20,
            "componentType" : 5126,
            "count" : 264,
            "type" : "VEC3"
        },
        {
            "bufferView" : 21,
            "componentType" : 5123,
            "count" : 264,
            "type" : "SCALAR"
        },
        {
            "bufferView" : 22,
            "componentType" : 5126,
            "count" : 468,
            "max" : [
                54.052406311035156,
                60.347328186035156,
                2.706191062927246
            ],
            "min" : [
                -54.053955078125,
                -60.53701400756836,
                0.47799110412597656
            ],
            "type" : "VEC3"
        },
        {
            "bufferView" : 23,
            "componentType" : 5126,
            "count" : 468,
            "type" : "VEC3"
        },
        {
            "bufferView" : 24,
            "componentType" : 5123,
            "count" : 468,
            "type" : "SCALAR"
        }
    ],
    "bufferViews" : [
        {
            "buffer" : 0,
            "byteLength" : 720,
            "byteOffset" : 0
        },
        {
            "buffer" : 0,
            "byteLength" : 720,
            "byteOffset" : 720
        },
        {
            "buffer" : 0,
            "byteLength" : 120,
            "byteOffset" : 1440
        },
        {
            "buffer" : 0,
            "byteLength" : 720,
            "byteOffset" : 1560
        },
        {
            "buffer" : 0,
            "byteLength" : 720,
            "byteOffset" : 2280
        },
        {
            "buffer" : 0,
            "byteLength" : 720,
            "byteOffset" : 3000
        },
        {
            "buffer" : 0,
            "byteLength" : 720,
            "byteOffset" : 3720
        },
        {
            "buffer" : 0,
            "byteLength" : 720,
            "byteOffset" : 4440
        },
        {
            "buffer" : 0,
            "byteLength" : 720,
            "byteOffset" : 5160
        },
        {
            "buffer" : 0,
            "byteLength" : 720,
            "byteOffset" : 5880
        },
        {
            "buffer" : 0,
            "byteLength" : 720,
            "byteOffset" : 6600
        },
        {
            "buffer" : 0,
            "byteLength" : 720,
            "byteOffset" : 7320
        },
        {
            "buffer" : 0,
            "byteLength" : 720,
            "byteOffset" : 8040
        },
        {
            "buffer" : 0,
            "byteLength" : 3744,
            "byteOffset" : 8760
        },
        {
            "buffer" : 0,
            "byteLength" : 3744,
            "byteOffset" : 12504
        },
        {
            "buffer" : 0,
            "byteLength" : 2496,
            "byteOffset" : 16248
        },
        {
            "buffer" : 0,
            "byteLength" : 624,
            "byteOffset" : 18744
        },
        {
            "buffer" : 0,
            "byteLength" : 3744,
            "byteOffset" : 19368
        },
        {
            "buffer" : 0,
            "byteLength" : 3744,
            "byteOffset" : 23112
        },
        {
            "buffer" : 0,
            "byteLength" : 3168,
            "byteOffset" : 26856
        },
        {
            "buffer" : 0,
            "byteLength" : 3168,
            "byteOffset" : 30024
        },
        {
            "buffer" : 0,
            "byteLength" : 528,
            "byteOffset" : 33192
        },
        {
            "buffer" : 0,
            "byteLength" : 5616,
            "byteOffset" : 33720
        },
        {
            "buffer" : 0,
            "byteLength" : 5616,
            "byteOffset" : 39336
        },
        {
            "buffer" : 0,
            "byteLength" : 936,
            "byteOffset" : 44952
        }
    ],
    "buffers" : [
        {
            "byteLength" : 45888,
            "uri" : "data:application/octet-stream;base64,"
        }
    ]
}
