{
  "asset": {
    "version": "2.0",
    "generator": "THREE.GLTFExporter"
  },
  "scenes": [
    {
      "name": "Scene",
      "nodes": [
        5,
        6
      ]
    }
  ],
  "scene": 0,
  "nodes": [
    {
      "matrix": [
        1,
        0,
        0,
        0,
        0,
        1,
        0,
        0,
        0,
        0,
        1,
        0,
        -0.00003896485825833837,
        1.7418644656011762e-12,
        -0.012680782009255204,
        1
      ],
      "name": "Cartridge_LowPoly_32Segments_Export_Material_0",
      "extras": {
        "name": "Cartridge_LowPoly_32Segments_Export_Material_0"
      },
      "mesh": 0
    },
    {
      "matrix": [
        -0.00001192092966562086,
        -100.00000298023224,
        -0.0000029802318834981634,
        0,
        -0.000008940696716308594,
        0,
        -100.00000298023224,
        0,
        100.00000298023188,
        -0.000008940696716308594,
        -0.00001192092966562086,
        0,
        0,
        0,
        0,
        1
      ],
      "name": "Cartridge_LowPoly_32Segments_Export",
      "extras": {
        "name": "Cartridge_LowPoly_32Segments_Export"
      },
      "children": [
        0
      ]
    },
    {
      "name": "RootNode",
      "extras": {
        "name": "RootNode"
      },
      "children": [
        1
      ]
    },
    {
      "matrix": [
        1,
        0,
        0,
        0,
        0,
        -1.3435885648505064e-7,
        1.0000001343588565,
        0,
        0,
        -1.0000001343588565,
        -1.3435885648505064e-7,
        0,
        0,
        0,
        0,
        1
      ],
      "name": "Cartridge_9x19mmfbx",
      "extras": {
        "name": "Cartridge_9x19mm.fbx"
      },
      "children": [
        2
      ]
    },
    {
      "matrix": [
        1,
        0,
        0,
        0,
        0,
        -1.3435885648505064e-7,
        -1.0000001343588565,
        0,
        0,
        1.0000001343588565,
        -1.3435885648505064e-7,
        0,
        0,
        0,
        0,
        1
      ],
      "name": "Sketchfab_model",
      "extras": {
        "name": "Sketchfab_model"
      },
      "children": [
        3
      ]
    },
    {
      "name": "app.gltf",
      "children": [
        4
      ]
    },
    {
      "matrix": [
        0.648703674753149,
        2.411398265951383e-16,
        -0.7610410911125368,
        0,
        -1.7943399092332445e-16,
        1,
        1.639074929912147e-16,
        0,
        0.7610410911125368,
        3.0229247211986847e-17,
        0.648703674753149,
        0,
        5,
        10,
        7.5,
        1
      ],
      "name": "SpotLight",
      "extensions": {
        "KHR_lights_punctual": {
          "light": 0
        }
      }
    }
  ],
  "bufferViews": [
    {
      "buffer": 0,
      "byteOffset": 0,
      "byteLength": 10752,
      "target": 34962,
      "byteStride": 12
    },
    {
      "buffer": 0,
      "byteOffset": 10752,
      "byteLength": 10752,
      "target": 34962,
      "byteStride": 12
    },
    {
      "buffer": 0,
      "byteOffset": 21504,
      "byteLength": 7168,
      "target": 34962,
      "byteStride": 8
    },
    {
      "buffer": 0,
      "byteOffset": 28672,
      "byteLength": 7168,
      "target": 34962,
      "byteStride": 8
    },
    {
      "buffer": 0,
      "byteOffset": 35840,
      "byteLength": 5184,
      "target": 34963
    }
  ],
  "buffers": [
    {
      "byteLength": 41024,
      "uri": "data:application/octet-stream;base64,"
    }
  ],
  "accessors": [
    {
      "bufferView": 0,
      "componentType": 5126,
      "count": 896,
      "max": [
        0.004980000201612711,
        0.004980000201612711,
        0.029690010473132133
      ],
      "min": [
        -0.004980000201612711,
        -0.004980000201612711,
        -2.3283064365386963e-10
      ],
      "type": "VEC3"
    },
    {
      "bufferView": 1,
      "componentType": 5126,
      "count": 896,
      "max": [
        1.0000001192092896,
        1,
        1
      ],
      "min": [
        -1,
        -1,
        -1
      ],
      "type": "VEC3"
    },
    {
      "bufferView": 2,
      "componentType": 5126,
      "count": 896,
      "max": [
        0.9414160251617432,
        0.9782601594924927
      ],
      "min": [
        0.10162078589200974,
        0.00390625
      ],
      "type": "VEC2"
    },
    {
      "bufferView": 3,
      "componentType": 5126,
      "count": 896,
      "max": [
        0.9414160251617432,
        0.9782601594924927
      ],
      "min": [
        0.10162078589200974,
        0.00390625
      ],
      "type": "VEC2"
    },
    {
      "bufferView": 4,
      "componentType": 5123,
      "count": 2592,
      "max": [
        895
      ],
      "min": [
        0
      ],
      "type": "SCALAR"
    }
  ],
  "materials": [
    {
      "pbrMetallicRoughness": {
        "metallicFactor": 1,
        "roughnessFactor": 1,
        "metallicRoughnessTexture": {
          "index": 0
        },
        "baseColorTexture": {
          "index": 1
        }
      },
      "normalTexture": {
        "index": 2,
        "scale": 1
      },
      "occlusionTexture": {
        "index": 0,
        "texCoord": 1
      },
      "doubleSided": true,
      "name": "Material.001"
    }
  ],
  "textures": [
    {
      "sampler": 0,
      "source": 0
    },
    {
      "sampler": 1,
      "source": 1
    },
    {
      "sampler": 2,
      "source": 2
    }
  ],
  "samplers": [
    {
      "magFilter": 9729,
      "minFilter": 9986,
      "wrapS": 10497,
      "wrapT": 10497
    },
    {
      "magFilter": 9729,
      "minFilter": 9986,
      "wrapS": 10497,
      "wrapT": 10497
    },
    {
      "magFilter": 9729,
      "minFilter": 9986,
      "wrapS": 10497,
      "wrapT": 10497
    }
  ],
  "images": [
    {
      "mimeType": "image/jpeg",
      "uri": "data:image/jpeg;base64,"
    },
    {
      "mimeType": "image/jpeg",
      "uri": "data:image/jpeg;base64,"
    },
    {
      "mimeType": "image/jpeg",
      "uri": "data:image/jpeg;base64,"
    }
  ],
  "meshes": [
    {
      "primitives": [
        {
          "mode": 4,
          "attributes": {
            "POSITION": 0,
            "NORMAL": 1,
            "TEXCOORD_0": 2,
            "TEXCOORD_1": 3
          },
          "indices": 4,
          "material": 0
        }
      ]
    }
  ],
  "extensions": {
    "KHR_lights_punctual": {
      "lights": [
        {
          "name": "SpotLight",
          "color": [
            1,
            1,
            1
          ],
          "intensity": 50,
          "type": "spot",
          "spot": {
            "innerConeAngle": 0.3141592653589793,
            "outerConeAngle": 0.3141592653589793
          }
        }
      ]
    }
  },
  "extensionsUsed": [
    "KHR_lights_punctual"
  ]
}