{
  "accessors": [
    {
      "bufferView": 2,
      "componentType": 5126,
      "count": 65533,
      "max": [
        0.67355191707611084,
        -7.4577012062072754,
        0.74795377254486084
      ],
      "min": [
        -2.3931326866149902,
        -15.802374839782715,
        -2.9489879608154297
      ],
      "type": "VEC3"
    },
    {
      "bufferView": 2,
      "byteOffset": 786396,
      "componentType": 5126,
      "count": 65533,
      "max": [
        1,
        0.99995821714401245,
        0.99993038177490234
      ],
      "min": [
        -0.99999862909317017,
        -0.99998503923416138,
        -0.99999958276748657
      ],
      "type": "VEC3"
    },
    {
      "bufferView": 1,
      "componentType": 5126,
      "count": 65533,
      "max": [
        0.99976402521133423,
        0.5360109806060791
      ],
      "min": [
        0.00012199999764561653,
        0.00032900000223889947
      ],
      "type": "VEC2"
    },
    {
      "bufferView": 0,
      "componentType": 5125,
      "count": 303348,
      "max": [
        65532
      ],
      "min": [
        0
      ],
      "type": "SCALAR"
    },
    {
      "bufferView": 2,
      "byteOffset": 1572792,
      "componentType": 5126,
      "count": 65532,
      "max": [
        1.0889472961425781,
        -8.3212213516235352,
        0.97859150171279907
      ],
      "min": [
        -2.2864639759063721,
        -15.952754020690918,
        -3.4889359474182129
      ],
      "type": "VEC3"
    },
    {
      "bufferView": 2,
      "byteOffset": 2359176,
      "componentType": 5126,
      "count": 65532,
      "max": [
        0.99996483325958252,
        0.99987667798995972,
        0.99996042251586914
      ],
      "min": [
        -0.99998956918716431,
        -0.9999576210975647,
        -0.99999648332595825
      ],
      "type": "VEC3"
    },
    {
      "bufferView": 1,
      "byteOffset": 524264,
      "componentType": 5126,
      "count": 65532,
      "max": [
        0.99981701374053955,
        0.5360109806060791
      ],
      "min": [
        0.00012199999764561653,
        0.0036619999445974827
      ],
      "type": "VEC2"
    },
    {
      "bufferView": 0,
      "byteOffset": 1213392,
      "componentType": 5125,
      "count": 271917,
      "max": [
        65531
      ],
      "min": [
        0
      ],
      "type": "SCALAR"
    },
    {
      "bufferView": 2,
      "byteOffset": 3145560,
      "componentType": 5126,
      "count": 65532,
      "max": [
        1.0889472961425781,
        -7.4577012062072754,
        3.2742018699645996
      ],
      "min": [
        -2.3948543071746826,
        -16.065950393676758,
        -3.4849133491516113
      ],
      "type": "VEC3"
    },
    {
      "bufferView": 2,
      "byteOffset": 3931944,
      "componentType": 5126,
      "count": 65532,
      "max": [
        0.99999731779098511,
        0.99992978572845459,
        0.99999940395355225
      ],
      "min": [
        -0.99999862909317017,
        -0.99998539686203003,
        -0.99996435642242432
      ],
      "type": "VEC3"
    },
    {
      "bufferView": 1,
      "byteOffset": 1048520,
      "componentType": 5126,
      "count": 65532,
      "max": [
        0.99962598085403442,
        0.53625500202178955
      ],
      "min": [
        0.00012199999764561653,
        0.0002840000088326633
      ],
      "type": "VEC2"
    },
    {
      "bufferView": 0,
      "byteOffset": 2301060,
      "componentType": 5125,
      "count": 294645,
      "max": [
        65531
      ],
      "min": [
        0
      ],
      "type": "SCALAR"
    },
    {
      "bufferView": 2,
      "byteOffset": 4718328,
      "componentType": 5126,
      "count": 65532,
      "max": [
        0.49411451816558838,
        -11.993390083312988,
        3.2484173774719238
      ],
      "min": [
        -2.098090648651123,
        -15.984074592590332,
        -1.2031527757644653
      ],
      "type": "VEC3"
    },
    {
      "bufferView": 2,
      "byteOffset": 5504712,
      "componentType": 5126,
      "count": 65532,
      "max": [
        0.99999916553497314,
        0.99977642297744751,
        0.99996817111968994
      ],
      "min": [
        -0.9999995231628418,
        -0.99983185529708862,
        -0.99998915195465088
      ],
      "type": "VEC3"
    },
    {
      "bufferView": 1,
      "byteOffset": 1572776,
      "componentType": 5126,
      "count": 65532,
      "max": [
        0.99980998039245605,
        0.5360109806060791
      ],
      "min": [
        0.00012199999764561653,
        0.00028099998598918319
      ],
      "type": "VEC2"
    },
    {
      "bufferView": 0,
      "byteOffset": 3479640,
      "componentType": 5125,
      "count": 288885,
      "max": [
        65531
      ],
      "min": [
        0
      ],
      "type": "SCALAR"
    },
    {
      "bufferView": 2,
      "byteOffset": 6291096,
      "componentType": 5126,
      "count": 65534,
      "max": [
        0.055129345506429672,
        -8.5996675491333008,
        1.1400223970413208
      ],
      "min": [
        -2.2827744483947754,
        -14.862582206726074,
        -1.685096263885498
      ],
      "type": "VEC3"
    },
    {
      "bufferView": 2,
      "byteOffset": 7077504,
      "componentType": 5126,
      "count": 65534,
      "max": [
        0.99999916553497314,
        0.99964165687561035,
        0.99999916553497314
      ],
      "min": [
        -0.99998205900192261,
        -0.99983525276184082,
        -0.99995303153991699
      ],
      "type": "VEC3"
    },
    {
      "bufferView": 1,
      "byteOffset": 2097032,
      "componentType": 5126,
      "count": 65534,
      "max": [
        0.99971497058868408,
        0.53625500202178955
      ],
      "min": [
        0.00012199999764561653,
        0.036403000354766846
      ],
      "type": "VEC2"
    },
    {
      "bufferView": 0,
      "byteOffset": 4635180,
      "componentType": 5125,
      "count": 269769,
      "max": [
        65533
      ],
      "min": [
        0
      ],
      "type": "SCALAR"
    },
    {
      "bufferView": 2,
      "byteOffset": 7863912,
      "componentType": 5126,
      "count": 6950,
      "max": [
        0.030928688123822212,
        -8.6065454483032227,
        1.1684352159500122
      ],
      "min": [
        -1.9401626586914062,
        -12.772711753845215,
        -0.50477981567382812
      ],
      "type": "VEC3"
    },
    {
      "bufferView": 2,
      "byteOffset": 7947312,
      "componentType": 5126,
      "count": 6950,
      "max": [
        0.99999791383743286,
        0.99964165687561035,
        0.99982321262359619
      ],
      "min": [
        -0.99993282556533813,
        -0.99792110919952393,
        -0.91460973024368286
      ],
      "type": "VEC3"
    },
    {
      "bufferView": 1,
      "byteOffset": 2621304,
      "componentType": 5126,
      "count": 6950,
      "max": [
        0.99772399663925171,
        0.5360109806060791
      ],
      "min": [
        0.0055809998884797096,
        0.1024710014462471
      ],
      "type": "VEC2"
    },
    {
      "bufferView": 0,
      "byteOffset": 5714256,
      "componentType": 5125,
      "count": 19857,
      "max": [
        6949
      ],
      "min": [
        0
      ],
      "type": "SCALAR"
    },
    {
      "bufferView": 2,
      "byteOffset": 8030712,
      "componentType": 5126,
      "count": 6048,
      "max": [
        -0.27281913161277771,
        -7.4577012062072754,
        0.74775749444961548
      ],
      "min": [
        -2.3948543071746826,
        -7.5264506340026855,
        -1.3619145154953003
      ],
      "type": "VEC3"
    },
    {
      "bufferView": 2,
      "byteOffset": 8103288,
      "componentType": 5126,
      "count": 6048,
      "max": [
        0.99997705221176147,
        0.99992978572845459,
        0.99992871284484863
      ],
      "min": [
        -0.99999594688415527,
        -0.60392463207244873,
        -0.99983745813369751
      ],
      "type": "VEC3"
    },
    {
      "bufferView": 1,
      "byteOffset": 2676904,
      "componentType": 5126,
      "count": 6048,
      "max": [
        0,
        0
      ],
      "min": [
        0,
        0
      ],
      "type": "VEC2"
    },
    {
      "bufferView": 0,
      "byteOffset": 5793684,
      "componentType": 5125,
      "count": 34131,
      "max": [
        6047
      ],
      "min": [
        0
      ],
      "type": "SCALAR"
    }
  ],
  "asset": {
    "extras": {
      "author": "noe-3d.at (https://sketchfab.com/www.noe-3d.at)",
      "license": "CC-BY-NC-4.0 (http://creativecommons.org/licenses/by-nc/4.0/)",
      "source": "https://sketchfab.com/3d-models/engel-c958d74ae18c4734b37dbc3ff0841f8a",
      "title": "Engel"
    },
    "generator": "Sketchfab-9.81.0",
    "version": "2.0"
  },
  "bufferViews": [
    {
      "buffer": 0,
      "byteLength": 5930208,
      "byteOffset": 0,
      "name": "floatBufferViews",
      "target": 34963
    },
    {
      "buffer": 0,
      "byteLength": 2725288,
      "byteOffset": 5930208,
      "byteStride": 8,
      "name": "floatBufferViews",
      "target": 34962
    },
    {
      "buffer": 0,
      "byteLength": 8175864,
      "byteOffset": 8655496,
      "byteStride": 12,
      "name": "floatBufferViews",
      "target": 34962
    }
  ],
  "buffers": [
    {
      "byteLength": 16831360,
      "uri": "scene.bin"
    }
  ],
  "images": [
    {
      "uri": "textures/Engel_O_Material_u1_v1_baseColor.png"
    }
  ],
  "materials": [
    {
      "doubleSided": true,
      "emissiveFactor": [
        0,
        0,
        0
      ],
      "name": "Engel_O_Material_u1_v1",
      "pbrMetallicRoughness": {
        "baseColorFactor": [
          1,
          1,
          1,
          1
        ],
        "baseColorTexture": {
          "index": 0,
          "texCoord": 0
        },
        "metallicFactor": 0.11723333880548918,
        "roughnessFactor": 1
      }
    }
  ],
  "meshes": [
    {
      "primitives": [
        {
          "attributes": {
            "NORMAL": 1,
            "POSITION": 0,
            "TEXCOORD_0": 2
          },
          "indices": 3,
          "material": 0,
          "mode": 4
        }
      ]
    },
    {
      "primitives": [
        {
          "attributes": {
            "NORMAL": 5,
            "POSITION": 4,
            "TEXCOORD_0": 6
          },
          "indices": 7,
          "material": 0,
          "mode": 4
        }
      ]
    },
    {
      "primitives": [
        {
          "attributes": {
            "NORMAL": 9,
            "POSITION": 8,
            "TEXCOORD_0": 10
          },
          "indices": 11,
          "material": 0,
          "mode": 4
        }
      ]
    },
    {
      "primitives": [
        {
          "attributes": {
            "NORMAL": 13,
            "POSITION": 12,
            "TEXCOORD_0": 14
          },
          "indices": 15,
          "material": 0,
          "mode": 4
        }
      ]
    },
    {
      "primitives": [
        {
          "attributes": {
            "NORMAL": 17,
            "POSITION": 16,
            "TEXCOORD_0": 18
          },
          "indices": 19,
          "material": 0,
          "mode": 4
        }
      ]
    },
    {
      "primitives": [
        {
          "attributes": {
            "NORMAL": 21,
            "POSITION": 20,
            "TEXCOORD_0": 22
          },
          "indices": 23,
          "material": 0,
          "mode": 4
        }
      ]
    },
    {
      "primitives": [
        {
          "attributes": {
            "NORMAL": 25,
            "POSITION": 24,
            "TEXCOORD_0": 26
          },
          "indices": 27,
          "material": 0,
          "mode": 4
        }
      ]
    }
  ],
  "nodes": [
    {
      "children": [
        1
      ],
      "name": "RootNode (gltf orientation matrix)",
      "rotation": [
        -0.70710678118654746,
        -0,
        -0,
        0.70710678118654757
      ]
    },
    {
      "children": [
        2
      ],
      "matrix": [
        0.0011862360033320085,
        0.24728741550855915,
        0.0037297815427085323,
        0,
        0.0012346804874828199,
        0.0037238564515499339,
        -0.2472872680953131,
        0,
        -0.24731246101906379,
        0.0012047068830626229,
        -0.0012166648613159969,
        0,
        -0.69846320152282715,
        -10.931363105773926,
        -11.858418464660645,
        1
      ],
      "name": "RootNode (model correction matrix)"
    },
    {
      "children": [
        3,
        4,
        5,
        6,
        7,
        8,
        9
      ],
      "name": "Engel_C.obj.cleaner.materialmerger.gles"
    },
    {
      "mesh": 0,
      "name": ""
    },
    {
      "mesh": 1,
      "name": ""
    },
    {
      "mesh": 2,
      "name": ""
    },
    {
      "mesh": 3,
      "name": ""
    },
    {
      "mesh": 4,
      "name": ""
    },
    {
      "mesh": 5,
      "name": ""
    },
    {
      "mesh": 6,
      "name": ""
    }
  ],
  "samplers": [
    {
      "magFilter": 9729,
      "minFilter": 9987,
      "wrapS": 10497,
      "wrapT": 10497
    }
  ],
  "scene": 0,
  "scenes": [
    {
      "name": "OSG_Scene",
      "nodes": [
        0
      ]
    }
  ],
  "textures": [
    {
      "sampler": 0,
      "source": 0
    }
  ]
}

